<?xml version="1.0" standalone="no"?>
<!DOCTYPE svg PUBLIC "-//W3C//DTD SVG 20010904//EN"
 "http://www.w3.org/TR/2001/REC-SVG-20010904/DTD/svg10.dtd">
<svg version="1.0" xmlns="http://www.w3.org/2000/svg"
 width="1280.000000pt" height="1244.000000pt" viewBox="0 0 1280.000000 1244.000000"
 preserveAspectRatio="xMidYMid meet">
<g transform="translate(0.000000,1244.000000) scale(0.100000,-0.100000)"
fill="#000000" stroke="none">
<path d="M2231 12297 c-1 -4 20 -56 45 -115 215 -500 388 -1050 445 -1412 26
-170 37 -507 20 -647 -39 -319 -134 -513 -290 -592 -54 -28 -79 -28 -75 2 44
290 60 581 45 802 -21 301 -50 475 -201 1235 -55 274 -100 509 -100 521 0 12
-3 20 -6 16 -3 -3 3 -75 14 -159 52 -386 73 -737 87 -1458 3 -168 10 -381 16
-475 11 -183 15 -463 7 -471 -3 -2 -20 9 -38 26 -18 17 -72 49 -119 72 -114
54 -112 52 -95 93 31 74 8 176 -56 247 l-38 43 49 45 c47 43 50 49 64 124 16
87 11 340 -8 364 -6 7 -7 42 -3 87 8 89 -10 142 -67 199 -24 23 -41 54 -52 93
-19 64 -39 93 -66 93 -11 0 -25 18 -40 50 -31 68 -80 105 -139 105 -153 -2
-430 -15 -455 -23 l-30 -8 33 -12 c17 -6 32 -15 32 -19 0 -44 23 -130 37 -140
9 -7 13 -13 9 -13 -4 0 -19 9 -33 20 -31 24 -61 25 -92 3 -21 -14 -25 -14 -35
-1 -26 35 -150 42 -212 12 -34 -17 -117 -111 -155 -177 -10 -17 -9 -17 20 -3
41 22 65 20 98 -8 41 -34 67 -46 89 -40 14 3 24 -4 37 -27 16 -29 20 -30 57
-24 39 7 40 6 40 -23 0 -38 16 -81 38 -105 9 -10 22 -37 27 -60 7 -28 19 -46
38 -56 28 -16 32 -25 94 -201 20 -60 20 -182 0 -242 -9 -26 -14 -54 -11 -63
11 -28 67 -48 147 -53 l78 -5 -38 -36 c-21 -20 -46 -49 -56 -66 -9 -16 -28
-45 -41 -63 -60 -80 -91 -249 -62 -326 17 -44 17 -46 -5 -76 -46 -62 -33 -184
35 -318 l22 -44 -25 -50 c-45 -91 -40 -261 15 -498 50 -216 92 -320 127 -320
35 1 41 19 54 171 7 83 14 154 16 155 2 2 24 -16 49 -39 55 -53 121 -87 174
-89 67 -2 166 13 219 33 27 10 53 19 56 19 4 0 9 -17 13 -38 7 -47 24 -63 101
-95 33 -14 146 -68 252 -120 339 -167 575 -227 763 -194 139 25 237 80 291
164 27 43 73 81 153 125 53 30 68 24 95 -40 131 -310 346 -691 527 -932 64
-85 71 -100 72 -141 1 -107 87 -210 195 -234 16 -3 32 -16 39 -31 10 -22 9
-28 -9 -42 -27 -22 -43 -54 -43 -87 0 -14 -13 -51 -29 -83 -60 -119 -86 -241
-141 -666 l-40 -309 -90 -148 c-50 -81 -98 -153 -107 -160 -62 -51 -222 -267
-319 -432 -49 -83 -58 -92 -136 -141 -208 -131 -437 -314 -587 -472 -70 -73
-134 -160 -279 -378 -104 -155 -235 -345 -291 -421 -56 -77 -121 -171 -144
-210 -80 -136 -138 -320 -157 -491 -6 -49 -15 -100 -20 -114 -5 -14 -23 -127
-40 -251 -16 -125 -39 -260 -50 -302 -28 -113 -92 -268 -115 -282 -229 -137
-333 -254 -365 -410 -9 -42 -16 -54 -43 -70 -18 -10 -119 -105 -225 -211 -105
-107 -197 -194 -202 -194 -17 0 -11 54 15 130 17 49 25 95 25 140 0 58 -3 70
-25 90 -52 49 -146 5 -180 -85 -15 -37 -19 -41 -45 -37 -23 3 -38 -5 -78 -42
-27 -25 -60 -67 -75 -94 -50 -93 -87 -271 -107 -527 -13 -165 -7 -195 39 -195
75 0 101 30 112 128 3 35 9 65 11 68 3 2 34 -3 69 -11 35 -9 121 -19 190 -22
141 -6 169 -1 263 54 33 19 89 45 124 59 l64 24 -6 -53 c-30 -268 -18 -320 68
-296 47 13 67 44 73 116 l5 59 92 -8 c98 -9 325 4 399 22 24 7 57 22 72 35 27
21 29 27 28 84 -2 60 -2 61 42 97 123 101 130 273 20 499 -42 87 -82 141 -119
162 -17 9 -17 13 8 60 14 28 41 106 61 174 19 68 52 158 73 199 65 131 310
485 459 664 41 49 80 98 88 109 12 17 18 18 46 8 42 -14 137 -14 180 1 19 6
53 24 76 41 l41 29 44 -29 c62 -43 70 -44 165 -27 220 38 374 151 549 404 54
79 87 116 112 129 56 29 199 136 304 228 155 136 270 278 328 406 30 67 55
183 44 211 -8 22 49 121 91 158 134 117 183 310 121 472 l-27 70 39 55 c21 31
47 72 57 91 10 19 31 51 47 71 16 20 32 49 36 64 6 23 18 32 58 45 74 26 134
58 186 101 26 22 49 36 51 32 2 -5 10 -26 17 -48 39 -122 108 -208 203 -250
56 -26 72 -29 164 -28 146 2 200 20 272 91 31 31 64 68 73 82 l15 24 57 -49
c31 -26 66 -61 77 -76 l19 -28 -31 -45 c-20 -28 -45 -88 -67 -163 -46 -159
-46 -160 -27 -255 41 -206 148 -456 234 -548 43 -46 48 -56 39 -73 -14 -28 -5
-116 23 -210 22 -76 22 -79 6 -131 -22 -68 -46 -98 -113 -141 -96 -62 -117
-134 -68 -233 45 -91 134 -151 290 -194 l81 -23 13 -115 c7 -63 16 -205 19
-315 4 -110 10 -206 15 -213 5 -8 10 -69 11 -135 1 -67 13 -189 25 -272 30
-192 32 -338 6 -423 -15 -51 -22 -62 -35 -56 -45 19 -68 16 -105 -17 -73 -63
-138 -233 -171 -441 l-17 -107 27 -45 c15 -25 31 -46 36 -46 5 0 9 -25 9 -56
0 -53 -3 -59 -64 -137 -83 -106 -103 -148 -88 -181 14 -31 80 -54 205 -69 l97
-11 0 -56 c0 -30 6 -66 13 -80 17 -35 58 -53 90 -41 34 13 46 38 53 109 l7 60
48 6 c66 9 83 35 74 108 -6 46 -3 60 16 92 18 31 23 57 26 123 1 45 7 92 13
102 5 11 10 27 10 35 0 19 7 20 49 5 62 -22 134 35 166 131 11 33 22 50 31 48
12 -2 15 -39 18 -193 4 -212 8 -228 70 -283 20 -17 36 -41 36 -52 0 -28 25
-86 41 -96 8 -5 52 -11 99 -14 l85 -5 5 -63 c4 -54 9 -67 33 -88 34 -29 57
-30 88 -5 21 16 25 31 29 97 l5 78 71 12 c74 12 121 32 144 59 21 25 -13 81
-120 199 l-90 98 0 89 c0 62 -6 104 -19 141 -11 29 -22 75 -26 103 -8 61 -26
97 -61 124 -31 24 -86 28 -104 6 -11 -13 -20 -8 -67 35 -89 81 -144 67 -179
-44 -13 -41 -23 -56 -36 -56 -16 0 -18 11 -18 134 0 83 -4 137 -10 141 -16 10
-60 83 -60 99 0 8 16 20 36 26 l36 12 -6 162 c-4 88 -11 211 -17 271 -5 61 -9
166 -9 235 0 142 0 141 129 459 39 96 78 201 87 234 10 39 24 67 39 79 14 10
58 64 100 120 41 56 89 110 106 120 29 18 31 22 25 62 -5 34 -2 51 13 77 11
19 23 61 27 94 7 57 10 63 81 139 94 100 178 227 258 391 258 525 171 937
-299 1410 l-149 150 -53 133 c-63 156 -65 174 -27 333 22 95 27 138 27 259 1
128 -2 152 -22 204 -28 72 -75 140 -108 155 -14 6 -47 11 -75 11 -128 0 -300
-150 -433 -377 l-37 -63 -51 35 c-28 19 -84 44 -125 57 -40 12 -73 26 -73 30
0 4 20 24 45 45 52 43 81 88 101 154 8 26 36 88 63 139 42 80 54 95 89 110 58
26 95 86 100 161 3 43 0 66 -11 83 -15 23 -15 29 9 93 l25 69 35 -4 c44 -5 77
22 110 93 28 58 30 113 8 160 -15 32 -15 36 11 94 26 57 29 60 57 54 37 -7 78
29 107 97 32 75 35 119 12 164 l-21 40 50 146 c42 122 93 329 89 358 -4 23 4
32 30 32 59 0 76 65 36 134 l-27 46 65 0 65 0 27 -56 c36 -73 128 -194 202
-265 268 -258 622 -429 892 -429 65 0 68 1 129 51 35 28 64 49 66 47 1 -1 8
-22 14 -45 7 -23 27 -63 45 -90 17 -27 39 -61 47 -77 8 -15 36 -41 63 -56 l49
-28 -87 -53 c-118 -73 -145 -96 -145 -124 0 -25 17 -35 62 -35 37 0 296 69
415 111 126 44 277 124 313 166 27 30 39 36 93 43 178 22 266 64 307 145 22
44 29 50 53 47 48 -6 133 43 215 122 42 41 93 89 114 106 l36 30 22 -34 c34
-56 75 -62 146 -20 52 31 165 46 296 41 74 -3 104 -8 112 -18 16 -22 40 -28
77 -20 19 4 40 6 47 4 24 -9 12 -52 -24 -86 l-36 -33 32 -57 c17 -31 36 -57
41 -57 5 0 39 12 76 27 75 30 148 94 159 140 4 15 11 34 17 41 5 7 7 15 3 19
-3 4 4 17 16 30 l22 24 -28 87 c-34 106 -69 162 -102 162 -29 0 -32 16 -5 25
19 6 125 17 167 17 13 0 26 10 33 24 10 23 1 55 -51 187 -13 34 -59 59 -100
55 -38 -4 -50 19 -14 28 14 3 29 3 34 0 5 -3 14 6 21 21 10 22 7 38 -20 114
-17 48 -40 95 -49 104 -10 9 -38 19 -62 22 -24 3 -50 12 -59 20 -11 9 -39 14
-85 13 -38 0 -99 2 -135 5 -56 6 -75 3 -128 -19 -35 -14 -80 -28 -100 -32 -20
-4 -56 -17 -81 -29 -103 -51 -126 -40 -27 14 34 19 213 119 397 224 184 105
380 215 435 245 122 66 530 271 603 302 29 13 51 24 49 26 -2 2 -73 -22 -158
-55 -85 -32 -311 -116 -504 -186 -460 -167 -712 -269 -920 -370 -210 -102
-339 -181 -559 -339 -94 -67 -176 -125 -182 -129 -6 -3 -28 -2 -49 4 -86 24
-145 100 -145 188 0 183 184 387 525 579 394 224 1111 420 1925 527 206 27
160 31 -111 10 -528 -42 -858 -91 -1204 -180 -547 -140 -1007 -353 -1520 -703
-150 -102 -401 -288 -411 -303 -3 -5 18 0 46 11 223 88 392 79 509 -26 52 -47
63 -74 76 -196 l6 -58 -72 -85 -73 -85 -56 0 c-62 0 -157 -15 -208 -33 -40
-14 -37 -18 -197 218 -64 94 -135 197 -158 230 -57 84 -231 253 -299 294 -125
73 -261 109 -358 95 -69 -10 -145 -50 -189 -101 l-41 -45 -34 16 c-84 40 -182
2 -227 -86 -24 -46 -54 -51 -62 -11 -7 36 50 150 105 209 73 79 153 112 370
153 130 24 198 52 239 99 27 31 31 41 26 79 -6 57 -31 82 -131 134 -44 23
-135 81 -201 129 -175 127 -336 231 -449 289 -109 56 -112 56 -174 -3 l-33
-31 24 55 c57 130 59 217 8 327 -76 160 -310 328 -605 432 -123 44 -336 104
-555 158 -167 41 -198 46 -311 47 -70 1 -128 5 -132 11 -4 6 -8 22 -8 37 0 66
-116 126 -260 135 -111 7 -142 -6 -210 -88 -101 -122 -145 -239 -305 -809
-150 -537 -185 -635 -228 -644 -12 -3 -78 -7 -147 -10 -69 -3 -137 -8 -151
-12 -24 -5 -30 -1 -58 53 -78 146 -179 249 -301 307 -60 29 -73 31 -175 31
-99 0 -116 -3 -168 -27 -32 -15 -72 -38 -90 -50 -24 -17 -47 -23 -94 -25 -51
-1 -72 -7 -115 -33 -125 -77 -258 -202 -297 -278 -48 -95 -50 -216 -5 -309 29
-60 118 -146 168 -163 32 -10 34 -14 40 -68 4 -31 10 -72 13 -90 l6 -34 -54
27 c-129 66 -310 116 -483 135 -55 6 -101 12 -102 13 -2 2 3 40 11 86 51 287
75 582 75 896 0 670 -161 1254 -579 2100 -55 110 -100 197 -100 192z m3553
-1551 c18 -60 31 -75 177 -211 113 -104 145 -214 134 -457 -4 -87 -8 -158 -9
-158 -1 0 -27 9 -59 20 -126 44 -204 18 -214 -73 -3 -26 -8 -47 -12 -47 -10 0
-65 71 -106 134 -80 126 -131 267 -155 434 -15 102 -9 357 9 394 14 27 15 27
85 22 39 -3 82 -1 96 4 31 12 32 11 54 -62z m-3221 -1468 c63 -27 139 -112
166 -183 12 -31 21 -60 21 -65 0 -6 -19 -10 -43 -10 -68 0 -205 -19 -291 -41
-43 -11 -80 -18 -83 -16 -2 3 1 53 7 113 5 60 11 129 13 154 2 43 4 45 47 62
51 20 91 17 163 -14z m7917 -655 l0 -48 -73 -1 c-84 -1 -128 -17 -185 -68 -43
-39 -58 -43 -87 -22 -18 13 -16 15 26 37 95 49 303 149 311 149 4 0 8 -21 8
-47z m-5741 -2308 c27 -76 30 -81 78 -105 27 -14 62 -30 79 -37 156 -61 242
-109 244 -133 0 -3 -31 -1 -69 4 -94 13 -199 -6 -298 -55 -86 -42 -84 -42
-109 36 -26 82 -30 203 -9 266 26 79 47 125 52 114 2 -5 16 -46 32 -90z m1527
-1129 c38 -26 31 -36 -27 -36 -31 0 -32 2 -23 38 8 27 7 27 50 -2z m-3227
-1201 c-8 -97 0 -235 20 -319 5 -22 7 -60 4 -85 -3 -31 0 -59 11 -85 15 -36
15 -44 -9 -150 -40 -180 -34 -168 -57 -111 -36 91 -51 192 -52 360 0 118 4
183 17 249 18 88 66 251 72 244 1 -1 -1 -48 -6 -103z m-2134 -3117 c-6 -58
-10 -66 -48 -100 -23 -21 -45 -38 -49 -38 -11 0 29 108 57 157 37 61 48 56 40
-19z m832 -59 c-4 -28 -11 -57 -17 -64 -6 -7 -24 -37 -40 -66 -35 -64 -37 -55
-9 37 22 72 55 144 66 144 3 0 3 -23 0 -51z"/>
</g>
</svg>
